<mxfile host="app.diagrams.net" modified="2024-02-26T12:18:52.221Z" agent="Mozilla/5.0 (Macintosh; Intel Mac OS X 10_15_7) AppleWebKit/537.36 (KHTML, like Gecko) Chrome/121.0.0.0 Safari/537.36" etag="7JY17rmH2aOTZEZYU8am" version="23.1.6" type="github">
  <diagram id="R2lEEEUBdFMjLlhIrx00" name="Page-1">
    <mxGraphModel dx="954" dy="515" grid="1" gridSize="10" guides="1" tooltips="1" connect="1" arrows="1" fold="1" page="1" pageScale="1" pageWidth="850" pageHeight="1100" math="0" shadow="0" extFonts="Permanent Marker^https://fonts.googleapis.com/css?family=Permanent+Marker">
      <root>
        <mxCell id="0" />
        <mxCell id="1" parent="0" />
        <mxCell id="1z7FCaSiBsVpx8_eQJGr-8" value="Student" style="whiteSpace=wrap;html=1;align=center;" vertex="1" parent="1">
          <mxGeometry x="230" y="20" width="100" height="40" as="geometry" />
        </mxCell>
        <mxCell id="1z7FCaSiBsVpx8_eQJGr-9" value="Eksamen" style="whiteSpace=wrap;html=1;align=center;" vertex="1" parent="1">
          <mxGeometry x="400" y="40" width="100" height="40" as="geometry" />
        </mxCell>
        <mxCell id="1z7FCaSiBsVpx8_eQJGr-11" value="oppgave" style="whiteSpace=wrap;html=1;align=center;" vertex="1" parent="1">
          <mxGeometry x="570" y="20" width="100" height="40" as="geometry" />
        </mxCell>
        <mxCell id="1z7FCaSiBsVpx8_eQJGr-13" value="" style="edgeStyle=entityRelationEdgeStyle;fontSize=12;html=1;endArrow=ERoneToMany;startArrow=ERoneToMany;rounded=0;exitX=1;exitY=0.5;exitDx=0;exitDy=0;entryX=0;entryY=0.5;entryDx=0;entryDy=0;" edge="1" parent="1" source="1z7FCaSiBsVpx8_eQJGr-8" target="1z7FCaSiBsVpx8_eQJGr-9">
          <mxGeometry width="100" height="100" relative="1" as="geometry">
            <mxPoint x="290" y="290" as="sourcePoint" />
            <mxPoint x="390" y="190" as="targetPoint" />
          </mxGeometry>
        </mxCell>
        <mxCell id="1z7FCaSiBsVpx8_eQJGr-14" value="" style="edgeStyle=entityRelationEdgeStyle;fontSize=12;html=1;endArrow=ERoneToMany;startArrow=ERoneToMany;rounded=0;exitX=1;exitY=0.5;exitDx=0;exitDy=0;entryX=0;entryY=0.5;entryDx=0;entryDy=0;" edge="1" parent="1" source="1z7FCaSiBsVpx8_eQJGr-9" target="1z7FCaSiBsVpx8_eQJGr-11">
          <mxGeometry width="100" height="100" relative="1" as="geometry">
            <mxPoint x="490" y="300" as="sourcePoint" />
            <mxPoint x="590" y="200" as="targetPoint" />
          </mxGeometry>
        </mxCell>
      </root>
    </mxGraphModel>
  </diagram>
</mxfile>
